<mxfile host="app.diagrams.net" modified="2020-11-06T18:25:20.140Z" agent="5.0 (Windows NT 10.0; Win64; x64) AppleWebKit/537.36 (KHTML, like Gecko) Chrome/86.0.4240.183 Safari/537.36" etag="pbc002SE9bjk-nz8qzoB" version="13.8.8" type="github">
  <diagram id="C5RBs43oDa-KdzZeNtuy" name="Page-1">
    <mxGraphModel dx="982" dy="351" grid="1" gridSize="10" guides="1" tooltips="1" connect="1" arrows="1" fold="1" page="1" pageScale="1" pageWidth="827" pageHeight="1169" math="0" shadow="0">
      <root>
        <mxCell id="WIyWlLk6GJQsqaUBKTNV-0" />
        <mxCell id="WIyWlLk6GJQsqaUBKTNV-1" parent="WIyWlLk6GJQsqaUBKTNV-0" />
        <mxCell id="zVZ_3o7BdBsqyf81N4rx-2" style="edgeStyle=orthogonalEdgeStyle;rounded=0;orthogonalLoop=1;jettySize=auto;html=1;exitX=0.5;exitY=1;exitDx=0;exitDy=0;entryX=0.5;entryY=0;entryDx=0;entryDy=0;" edge="1" parent="WIyWlLk6GJQsqaUBKTNV-1" source="WIyWlLk6GJQsqaUBKTNV-3" target="zVZ_3o7BdBsqyf81N4rx-1">
          <mxGeometry relative="1" as="geometry" />
        </mxCell>
        <mxCell id="WIyWlLk6GJQsqaUBKTNV-3" value="Start" style="rounded=1;whiteSpace=wrap;html=1;fontSize=5;glass=0;strokeWidth=1;shadow=0;" parent="WIyWlLk6GJQsqaUBKTNV-1" vertex="1">
          <mxGeometry x="160" y="100" width="120" height="20" as="geometry" />
        </mxCell>
        <mxCell id="zVZ_3o7BdBsqyf81N4rx-4" style="edgeStyle=orthogonalEdgeStyle;rounded=0;orthogonalLoop=1;jettySize=auto;html=1;exitX=0.5;exitY=1;exitDx=0;exitDy=0;entryX=0.502;entryY=-0.117;entryDx=0;entryDy=0;entryPerimeter=0;fontSize=5;" edge="1" parent="WIyWlLk6GJQsqaUBKTNV-1" source="zVZ_3o7BdBsqyf81N4rx-1" target="zVZ_3o7BdBsqyf81N4rx-3">
          <mxGeometry relative="1" as="geometry" />
        </mxCell>
        <mxCell id="zVZ_3o7BdBsqyf81N4rx-1" value="&#xa;&#xa;&lt;span style=&quot;color: rgb(0, 0, 0); font-family: helvetica; font-size: 5px; font-style: normal; font-weight: 400; letter-spacing: normal; text-align: center; text-indent: 0px; text-transform: none; word-spacing: 0px; background-color: rgb(248, 249, 250); display: inline; float: none;&quot;&gt;Initialize I/O&lt;/span&gt;&#xa;&#xa;" style="rounded=1;whiteSpace=wrap;html=1;fontSize=5;" vertex="1" parent="WIyWlLk6GJQsqaUBKTNV-1">
          <mxGeometry x="160" y="140" width="120" height="20" as="geometry" />
        </mxCell>
        <mxCell id="zVZ_3o7BdBsqyf81N4rx-7" style="edgeStyle=orthogonalEdgeStyle;rounded=0;orthogonalLoop=1;jettySize=auto;html=1;entryX=0.5;entryY=0;entryDx=0;entryDy=0;fontSize=5;" edge="1" parent="WIyWlLk6GJQsqaUBKTNV-1" source="zVZ_3o7BdBsqyf81N4rx-3" target="zVZ_3o7BdBsqyf81N4rx-5">
          <mxGeometry relative="1" as="geometry" />
        </mxCell>
        <mxCell id="zVZ_3o7BdBsqyf81N4rx-3" value="&lt;font style=&quot;font-size: 5px;&quot;&gt;All Output(Relay)-&amp;gt;LOW(OFF)&lt;/font&gt;" style="rounded=1;whiteSpace=wrap;html=1;fontSize=5;" vertex="1" parent="WIyWlLk6GJQsqaUBKTNV-1">
          <mxGeometry x="142.5" y="180" width="155" height="20" as="geometry" />
        </mxCell>
        <mxCell id="zVZ_3o7BdBsqyf81N4rx-5" value="&lt;font style=&quot;font-size: 5px&quot;&gt;&lt;span style=&quot;color: rgb(0 , 0 , 0) ; font-family: &amp;#34;helvetica&amp;#34; ; font-style: normal ; font-weight: 400 ; letter-spacing: normal ; text-align: center ; text-indent: 0px ; text-transform: none ; word-spacing: 0px ; background-color: rgb(248 , 249 , 250) ; display: inline ; float: none ; font-size: 5px&quot;&gt;Initialize P&lt;/span&gt;&lt;span style=&quot;color: rgb(34 , 34 , 34) ; font-family: &amp;#34;arial&amp;#34; , sans-serif ; text-align: left ; background-color: rgb(255 , 255 , 255) ; font-size: 5px&quot;&gt;eripheral&lt;/span&gt;&lt;/font&gt;" style="rounded=1;whiteSpace=wrap;html=1;fontSize=5;" vertex="1" parent="WIyWlLk6GJQsqaUBKTNV-1">
          <mxGeometry x="160" y="220" width="120" height="20" as="geometry" />
        </mxCell>
      </root>
    </mxGraphModel>
  </diagram>
</mxfile>
